<svg width="32" height="32" viewBox="0 0 32 32" fill="none" xmlns="http://www.w3.org/2000/svg">
<path fill-rule="evenodd" clip-rule="evenodd" d="M21.6355 11.7733C20.3314 11.7733 19.2706 12.8339 19.2706 14.1385V16.8817C18.8406 16.748 18.3871 16.707 17.9422 16.7593V12.7846H18.2402C18.4695 12.7846 18.6582 12.5974 18.6582 12.3671V9.60525C18.6582 9.37467 18.4695 9.18747 18.2402 9.18747H8.41748C8.1878 9.18732 8 9.37452 8 9.60525V12.3671C8 12.5974 8.1878 12.7846 8.41748 12.7846H8.71572V22.3942C8.71572 22.6233 8.90292 22.8118 9.13335 22.8118H17.5226C17.5977 22.8118 17.6645 22.7866 17.7248 22.7531C17.9185 22.7915 18.1204 22.8126 18.3242 22.8126C19.0128 22.8126 19.6619 22.5729 20.1962 22.1545C20.6089 22.4727 21.1046 22.6537 21.6346 22.6537C22.9397 22.6537 23.9999 21.5934 23.9999 20.2885V14.1385C24.0007 12.8339 22.9397 11.7733 21.6355 11.7733ZM23.1656 14.1385C23.1656 13.2946 22.4788 12.6084 21.6355 12.6084C20.7913 12.6084 20.1059 13.2946 20.1059 14.1385V16.6933H23.1656V14.1385ZM20.1537 21.0134C20.7474 20.1554 20.6694 18.9646 19.9109 18.193C19.4899 17.7657 18.9263 17.5292 18.3276 17.5284C17.8809 17.5284 17.4566 17.6597 17.0938 17.9028L20.1537 21.0134ZM17.8226 10.0217H8.836V11.9486H17.8226V10.0217ZM9.55083 12.7838V21.9758L16.2372 21.9761C16.2071 21.9484 16.1718 21.9272 16.1433 21.8979C15.8011 21.5488 15.5695 21.1328 15.4294 20.6964C15.33 20.3938 15.2914 20.2144 15.282 19.8613C15.2692 19.5049 15.3209 19.1493 15.4335 18.8084C15.5862 18.4079 15.6786 18.2379 15.8492 17.9732C15.9487 17.8328 16.0551 17.6974 16.1809 17.5727C16.45 17.3077 16.7674 17.1117 17.1069 16.9716L17.107 12.7838H9.55083ZM16.7411 21.3118C17.162 21.7399 17.7248 21.9766 18.3251 21.9766C18.7704 21.9766 19.197 21.8445 19.5601 21.6014L16.5001 18.4898C15.9048 19.3514 15.9814 20.5402 16.7411 21.3118ZM20.7816 21.5568C21.0311 21.7278 21.3264 21.8174 21.6355 21.8174C22.479 21.8174 23.1656 21.1324 23.1673 20.2874V17.5275H20.4084C20.4406 17.5569 20.4767 17.5782 20.5059 17.6076C21.5713 18.6905 21.6543 20.3689 20.7816 21.5568Z" fill="black" fill-opacity="0.38"/>
<path fill-rule="evenodd" clip-rule="evenodd" d="M19.2706 14.1385C19.2706 12.8339 20.3314 11.7733 21.6355 11.7733C22.9397 11.7733 24.0007 12.8339 23.9999 14.1385V20.2885C23.9999 21.5934 22.9397 22.6537 21.6346 22.6537C21.1046 22.6537 20.6089 22.4727 20.1962 22.1545C19.6619 22.5729 19.0128 22.8126 18.3242 22.8126C18.1204 22.8126 17.9185 22.7916 17.7248 22.7531C17.051 22.528 16.7215 22.3611 16.2372 21.9761C16.224 21.9639 16.2097 21.953 16.1955 21.9421C16.1774 21.9282 16.1593 21.9143 16.1433 21.8979C15.8011 21.5488 15.5695 21.1328 15.4294 20.6964C15.3271 20.3644 15.3048 20.1831 15.282 19.8613C15.2692 19.5049 15.3209 19.1493 15.4335 18.8084C15.5724 18.4292 15.6645 18.2511 15.8492 17.9732C15.9487 17.8328 16.0551 17.6974 16.1809 17.5727C16.45 17.3077 16.7674 17.1117 17.1069 16.9716C17.4117 16.864 17.5926 16.8145 17.9422 16.7593C18.3871 16.707 18.8406 16.748 19.2706 16.8817V14.1385ZM19.9109 18.193C20.6694 18.9646 20.7474 20.1554 20.1537 21.0134L17.0938 17.9028C17.4566 17.6597 17.8809 17.5284 18.3276 17.5284C18.9263 17.5292 19.4899 17.7657 19.9109 18.193ZM16.7411 21.3118C17.162 21.7399 17.7248 21.9766 18.3251 21.9766C18.7704 21.9766 19.197 21.8445 19.5601 21.6014L16.5001 18.4898C15.9048 19.3514 15.9814 20.5402 16.7411 21.3118ZM21.6355 21.8174C21.3264 21.8174 21.0311 21.7278 20.7816 21.5568C21.6543 20.3689 21.5713 18.6905 20.5059 17.6076C20.4899 17.5915 20.4719 17.5779 20.4536 17.564C20.4384 17.5525 20.423 17.5408 20.4084 17.5275H23.1673V20.2874C23.1656 21.1324 22.479 21.8174 21.6355 21.8174ZM23.1656 14.1385C23.1656 13.2946 22.4788 12.6084 21.6355 12.6084C20.7913 12.6084 20.1059 13.2946 20.1059 14.1385V16.6933H23.1656V14.1385Z" fill="#489FCA"/>
</svg>
