<svg width="170" height="16" viewBox="0 0 170 16" fill="none" xmlns="http://www.w3.org/2000/svg">
    <path
        d="M117.637 15.7512V0.312542H114.924V15.7512H117.637ZM152.803 8.03302C152.803 10.3909 153.552 12.3106 155.075 13.7898C156.596 15.2667 158.516 15.9947 160.832 15.9947C163.148 15.9947 165.066 15.2435 166.589 13.7434C168.11 12.2457 168.882 10.3468 168.882 8.03302C168.882 5.6705 168.11 3.75314 166.589 2.27396C165.066 0.797093 163.148 0.0690918 160.832 0.0690918C158.493 0.0690918 156.576 0.841147 155.052 2.36438C153.552 3.88529 152.803 5.76092 152.803 8.03302ZM155.671 8.03302C155.671 6.44487 156.156 5.1419 157.127 4.12873C158.12 3.11324 159.353 2.60551 160.832 2.60551C162.309 2.60551 163.522 3.11324 164.516 4.12873C165.509 5.1419 166.016 6.44487 166.016 8.03302C166.016 9.59798 165.553 10.8778 164.604 11.9142C163.677 12.9505 162.42 13.4582 160.832 13.4582C159.376 13.4582 158.14 12.9505 157.148 11.9142C156.156 10.8778 155.671 9.5748 155.671 8.03302ZM144.399 15.7512V9.75333H149.847V7.21694H144.399V2.84893H150.508V0.312542H141.686V15.7512H144.399ZM137.186 0.312542H134.65V11.054L126.157 0.312542H123.996V15.7512H126.533V5.05379L135.025 15.7512H137.186V0.312542Z"
        fill="white" fill-opacity="0.4" />
    <path
        d="M10.1945 0.312498V8.80272C10.1945 11.9141 9.04681 13.4582 6.75385 13.4582C4.17339 13.4582 2.89361 11.6266 2.89361 8.62652V0.312498H0.181V9.20149C0.181 11.3855 0.776848 13.0826 1.96622 14.2511C3.1811 15.4196 4.76924 15.9946 6.75385 15.9946C8.5182 15.9946 9.97421 15.4428 11.1427 14.3392C12.3112 13.238 12.8862 11.5826 12.8862 9.35452V0.312498H10.1945ZM36.2216 2.80485C38.1181 2.80485 39.0663 3.59776 39.0663 5.2091C39.0663 6.86217 37.8978 7.70145 36.1984 7.70145C35.6257 7.70145 34.9858 7.6574 34.281 7.59017V2.84889C35.2501 2.8257 35.89 2.80485 36.2216 2.80485ZM34.281 10.1706C34.7215 10.2147 35.3823 10.2378 36.2865 10.2378C38.0531 10.2378 39.4419 9.7533 40.4342 8.78186C41.4265 7.81043 41.9343 6.62104 41.9343 5.22996C41.9343 2.67269 40.4783 0.268433 35.9573 0.268433C35.5817 0.268433 34.8096 0.268453 33.662 0.289319C32.5375 0.312504 31.8327 0.312498 31.5684 0.312498V15.7512H34.281V10.1706ZM57.7485 15.7512V0.312498H55.0568V6.62104H47.9994V0.312498H45.2868V15.7512H47.9994V9.15745H55.0568V15.7512H57.7485ZM70.1662 9.26642H65.6452L67.9173 3.77395L70.1662 9.26642ZM62.9975 15.7512L64.6089 11.8028H71.2049L72.8139 15.7512H75.7027L69.1739 0.268433H66.7929L60.2641 15.7512H62.9975ZM82.8065 2.80485C84.7239 2.80485 85.6721 3.5537 85.6721 5.05375C85.6721 6.5538 84.3947 7.43714 82.7184 7.43714H80.9541V2.84889C81.9232 2.8257 82.5399 2.80485 82.8065 2.80485ZM80.9541 9.97353H82.8505L87.1073 15.7512H90.3925L85.5632 9.44262C86.3352 9.17832 87.04 8.67058 87.6359 7.94258C88.2317 7.19372 88.5401 6.22227 88.5401 5.03289C88.5401 1.85659 86.6644 0.268433 82.9387 0.268433C82.8274 0.268433 82.0785 0.268453 80.7315 0.289319C79.3868 0.312504 78.5707 0.312498 78.2391 0.312498V15.7512H80.9541V9.97353ZM124.001 6.67436H108.567V0.312498H106.01L100.981 7.52524L95.7088 0.312498H92.973V15.7512H95.6879V4.6573L100.605 11.4504H101.002L105.878 4.59006V15.7512H108.567V9.3893H124.001V6.67436ZM24.4646 2.84889L15.9303 13.8987V15.7512H28.3249V13.2148H19.5472L28.1046 2.18581V0.312498H16.3709V2.84889H24.4646Z"
        fill="white" />
</svg>
