<svg width="32" height="32" viewBox="0 0 32 32" fill="none" xmlns="http://www.w3.org/2000/svg">
    <path
        d="M23.516 14.4708H16.4311V9.35747C16.4311 9.08988 16.2146 8.87347 15.9471 8.87347H8.484C8.21689 8.87347 8 9.08988 8 9.35747V22.6425C8 22.9101 8.21689 23.1265 8.484 23.1265H15.9471C15.9655 23.1265 15.9822 23.1179 15.9996 23.1161C16.018 23.1181 16.0337 23.1265 16.0521 23.1265H23.516C23.7826 23.1265 24 22.91 24 22.6425V14.9558C24.0002 14.6887 23.7826 14.4708 23.516 14.4708ZM15.4612 22.1576H8.96624V9.84163H15.4612V22.1576ZM23.032 22.1576H16.4311V15.439H23.032V22.1576ZM11.7883 13.1689H9.97599V11.3567H11.7883V13.1689ZM14.4534 13.1689H12.641V11.3567H14.4534V13.1689ZM11.7883 15.6938H9.97599V13.8814H11.7883V15.6938ZM14.4534 15.6938H12.641V13.8814H14.4534V15.6938ZM11.7883 18.2179H9.97599V16.4067H11.7883V18.2179ZM14.4534 18.2179H12.641V16.4067H14.4534V18.2179ZM11.7883 20.7441H9.97599V18.9318H11.7883V20.7441ZM14.4534 20.7441H12.641V18.9318H14.4534V20.7441ZM19.239 18.5213H17.3899V16.6712H19.2392L19.239 18.5213ZM21.9591 18.5213H20.1107V16.6712H21.9591V18.5213ZM17.3899 21.1014V19.2513H19.2392V21.1014H17.3899ZM21.9591 21.1014H20.1107V19.2513H21.9591V21.1014Z"
        fill="black" fill-opacity="0.38" />
    <path
        d="M18.1613 13.2024V10.1436C18.1613 9.87602 18.3787 9.65961 18.6453 9.65961C18.9119 9.65961 19.1293 9.87618 19.1293 10.1436V11.1892H20.8841V10.1436C20.8841 9.87602 21.1024 9.65961 21.3681 9.65961C21.6366 9.65961 21.8521 9.87618 21.8521 10.1436V13.2024C21.8521 13.4695 21.6365 13.6864 21.3681 13.6864C21.1024 13.6864 20.8841 13.4695 20.8841 13.2024V12.1573H19.1294V13.2024C19.1294 13.4695 18.9121 13.6864 18.6454 13.6864C18.3788 13.6864 18.1613 13.4719 18.1613 13.2024Z"
        fill="#489FCA" />
</svg>
