<svg width="200" height="200" viewBox="0 0 200 200" fill="none" xmlns="http://www.w3.org/2000/svg">
    <g clip-path="url(#clip0)">
        <path
            d="M110.033 61.9667L58.0079 9.94209C44.7541 -3.31172 23.1938 -3.3082 9.93996 9.94209C-3.31385 23.1924 -3.31385 44.7531 9.93996 58.0066L61.9681 110.035C68.5915 116.658 77.2953 119.972 85.9987 119.972C94.7022 119.972 103.406 116.658 110.033 110.032C123.286 96.7808 123.286 75.2201 110.033 61.9667ZM105.316 105.318C94.6655 115.968 77.3351 115.968 66.6782 105.318L14.6536 53.2929C4.00016 42.6395 4.00016 25.3056 14.6536 14.6518C19.9805 9.32842 26.9773 6.66477 33.9741 6.66477C40.971 6.66477 47.9647 9.3249 53.2947 14.6518L105.316 66.6799C115.97 77.3302 115.97 94.6641 105.316 105.318Z"
            fill="white" />
        <path
            d="M100.603 71.3951L89.5891 60.3816C88.2856 59.0781 86.179 59.0781 84.8755 60.3816C83.572 61.6851 83.572 63.7917 84.8755 65.0952L95.8891 76.1088C100.746 80.9654 101.362 89.1259 97.2957 94.686C96.209 96.1692 96.5324 98.2563 98.0191 99.343C98.609 99.7797 99.2992 99.9863 99.9824 99.9863C101.009 99.9863 102.026 99.5129 102.676 98.6231C108.636 90.4759 107.726 78.5154 100.603 71.3951Z"
            fill="white" />
        <path
            d="M35.0908 54.8779L24.0803 43.8643C21.4401 41.221 19.9835 37.7109 19.9835 33.9742C19.9835 30.4906 20.8667 27.5973 22.6069 25.3739C23.7436 23.9239 23.4901 21.8305 22.0401 20.6938C20.5932 19.5571 18.4967 19.8106 17.36 21.2606C14.6765 24.6805 13.3167 28.9609 13.3167 33.9711C13.3167 39.4878 15.4667 44.6745 19.3671 48.5749L30.3806 59.592C31.0306 60.242 31.8841 60.5685 32.7373 60.5685C33.5873 60.5685 34.4408 60.242 35.0908 59.592C36.3943 58.2916 36.3943 56.1814 35.0908 54.8779Z"
            fill="white" />
        <path
            d="M198.868 97.5961C196.605 89.1457 191.185 82.0825 183.608 77.7087C176.031 73.3353 167.204 72.172 158.751 74.4384C150.3 76.7017 143.237 82.122 138.863 89.6989L103.559 150.85C99.1855 158.427 98.0223 167.258 100.289 175.708C102.552 184.158 107.972 191.221 115.549 195.595C120.596 198.508 126.196 199.998 131.873 199.998C134.716 199.998 137.58 199.622 140.403 198.865C148.854 196.602 155.917 191.182 160.291 183.605L195.598 122.453C199.972 114.876 201.135 106.046 198.868 97.5961ZM189.818 119.12L154.514 180.271C151.034 186.305 145.407 190.621 138.677 192.425C131.943 194.232 124.913 193.302 118.88 189.818C112.846 186.338 108.529 180.711 106.726 173.981C104.922 167.248 105.849 160.221 109.332 154.184L144.64 93.0328C148.12 86.9993 153.747 82.6825 160.477 80.879C162.724 80.2755 165.004 79.979 167.271 79.979C171.791 79.979 176.254 81.1657 180.271 83.4856C186.304 86.9657 190.621 92.5926 192.425 99.3226C194.228 106.056 193.302 113.083 189.818 119.12Z"
            fill="white" />
        <path
            d="M158.581 157.261C157.077 156.201 154.994 156.561 153.934 158.061L142.97 173.604C140.697 177.545 136.457 179.988 131.9 179.988C130.06 179.988 128.567 181.481 128.567 183.322C128.567 185.162 130.06 186.655 131.9 186.655C138.83 186.655 145.284 182.932 148.584 177.191L159.381 161.908C160.441 160.404 160.084 158.324 158.581 157.261Z"
            fill="white" />
        <path
            d="M166.658 86.6523C159.898 86.6523 153.977 90.1925 150.507 96.2124L140.531 111.496C139.524 113.04 139.957 115.103 141.5 116.11C142.061 116.479 142.691 116.653 143.317 116.653C144.407 116.653 145.474 116.12 146.117 115.143L156.187 99.7022C158.564 95.5855 162.281 93.3187 166.658 93.3187C168.498 93.3187 169.991 91.8253 169.991 89.9851C169.991 88.1449 168.498 86.6523 166.658 86.6523Z"
            fill="white" />
        <path
            d="M174.974 147.094L128.306 120.426C126.71 119.513 124.673 120.07 123.76 121.666C122.846 123.263 123.403 125.3 124.999 126.213L171.667 152.88C172.187 153.18 172.758 153.32 173.317 153.32C174.478 153.32 175.601 152.717 176.214 151.64C177.128 150.044 176.571 148.007 174.974 147.094Z"
            fill="white" />
        <path
            d="M82.342 37.6279C81.0384 36.3244 78.9318 36.3244 77.6283 37.6279L37.6275 77.6288C36.324 78.9323 36.324 81.0389 37.6275 82.3424C38.2775 82.9924 39.131 83.319 39.9841 83.319C40.8376 83.319 41.6907 82.9924 42.3407 82.3424L82.3416 42.3415C83.6455 41.038 83.6455 38.931 82.342 37.6279Z"
            fill="white" />
    </g>
    <defs>
        <clipPath id="clip0">
            <rect width="200" height="200" fill="white" />
        </clipPath>
    </defs>
</svg>
