<svg width="16" height="16" viewBox="0 0 16 16" fill="none" xmlns="http://www.w3.org/2000/svg">
<path d="M3.5 3.5C2.6775 3.5 2 4.1775 2 5V11C2 11.8225 2.6775 12.5 3.5 12.5H12.5C13.3225 12.5 14 11.8225 14 11V5C14 4.1775 13.3225 3.5 12.5 3.5H3.5ZM3.5 4.5H12.5C12.7825 4.5 13 4.7175 13 5V11C13 11.2825 12.7825 11.5 12.5 11.5H3.5C3.2175 11.5 3 11.2825 3 11V5C3 4.7175 3.2175 4.5 3.5 4.5ZM4 5.5V8.5H10V5.5H4ZM11 5.5V6.5H12V5.5H11ZM11 7.5V8.5H12V7.5H11ZM4 9.5V10.5H10V9.5H4ZM11 9.5V10.5H12V9.5H11Z" fill="#489FCA"/>
</svg>
