<svg width="32" height="32" viewBox="0 0 32 32" fill="none" xmlns="http://www.w3.org/2000/svg">
    <g clip-path="url(#clip0)">
        <path fill-rule="evenodd" clip-rule="evenodd"
            d="M16.3507 8C17.9797 8.01779 20.0465 8.24622 21.5842 9.86115C22.7917 11.1298 23.2556 12.6303 22.8918 14.0885C22.4806 15.7248 21.0866 17.0461 19.0659 17.7121C18.7873 17.8045 18.3728 17.9143 17.8824 18.0422L17.8682 18.0459C17.1746 18.23 16.1076 18.5132 15.0943 18.875V21.4141C16.2991 21.1833 17.4726 20.6776 17.7602 20.2043C17.9014 19.9753 18.2005 19.9007 18.4333 20.0421C18.6631 20.1834 18.7365 20.4829 18.5962 20.714C18.0946 21.5346 16.5744 22.1605 15.0951 22.4046V23.0231H17.3541C17.6238 23.0231 17.8421 23.2425 17.8421 23.5117C17.8421 23.7806 17.6238 24.0002 17.3541 24.0002H11.8581C11.5879 24.0002 11.3695 23.7806 11.3695 23.5117C11.3695 23.2425 11.5879 23.0231 11.8581 23.0231H14.1169V22.5038C14.0791 22.5054 14.0408 22.5081 14.0026 22.5108C13.9437 22.515 13.8849 22.5192 13.8283 22.5192C13.4637 22.5192 13.1261 22.4867 12.8326 22.42C11.6513 22.1488 11.407 21.416 11.3671 21.0021C11.2429 19.7197 12.5201 18.838 14.1171 18.1909V17.1356C11.2475 16.8874 8.98734 14.4742 8.98734 11.542C8.98734 11.2724 9.20584 11.0534 9.47595 11.0534H19.7354C20.0046 11.0534 20.224 11.2724 20.224 11.542C20.224 14.4752 17.9635 16.8874 15.0941 17.1357V17.8303C15.9616 17.5403 16.8574 17.3037 17.6343 17.0995C17.6936 17.0837 17.7518 17.0682 17.8087 17.0531C18.1987 16.9497 18.5288 16.8621 18.7604 16.7845C20.4566 16.2263 21.6161 15.156 21.9434 13.8508C22.2241 12.73 21.8442 11.553 20.8765 10.5358C19.8717 9.4824 18.472 9.00059 16.339 8.97722C15.3557 8.95089 14.037 9.34272 13.8424 9.69915C13.7135 9.93666 13.4155 10.0237 13.1796 9.89463C12.9426 9.76594 12.8556 9.46862 12.9846 9.23251C13.5569 8.18275 15.8312 8.01482 16.3507 8ZM13.0499 21.4659C13.3596 21.5383 13.7287 21.5479 14.1157 21.5289V19.2616C13.0734 19.7263 12.2779 20.2808 12.3386 20.9056L12.3388 20.9078C12.35 21.0103 12.3833 21.3153 13.0499 21.4659ZM9.98793 12.0297C10.0247 12.3841 10.1138 12.7213 10.227 13.0479C10.3731 13.4353 10.4748 13.6495 10.7069 14.025C11.5326 15.3156 12.963 16.1833 14.6025 16.1822C16.9975 16.1822 18.974 14.36 19.2183 12.0297H9.98793Z"
            fill="black" fill-opacity="0.38" />
        <path
            d="M16.3507 8C17.9797 8.01779 20.0465 8.24622 21.5842 9.86115C22.7917 11.1298 23.2556 12.6303 22.8918 14.0885C22.4806 15.7248 21.0866 17.0461 19.0659 17.7121C18.7873 17.8045 18.3728 17.9143 17.8824 18.0422L17.8682 18.0459C17.1746 18.23 16.1076 18.5132 15.0943 18.875L15.0941 17.8303C15.9616 17.5403 16.8574 17.3037 17.6343 17.0995L17.8087 17.0531C18.1987 16.9497 18.5288 16.8621 18.7604 16.7845C20.4566 16.2263 21.6161 15.156 21.9434 13.8508C22.2241 12.73 21.8442 11.553 20.8765 10.5358C19.8717 9.4824 18.472 9.00059 16.339 8.97722C15.3557 8.95089 14.037 9.34272 13.8424 9.69915C13.7135 9.93666 13.4155 10.0237 13.1796 9.89463C12.9426 9.76594 12.8556 9.46862 12.9846 9.23251C13.5569 8.18275 15.8312 8.01482 16.3507 8Z"
            fill="#489FCA" />
        <path
            d="M11.3671 21.0021C11.2429 19.7197 12.5201 18.838 14.1171 18.1909L14.1157 19.2616C13.0734 19.7263 12.2779 20.2808 12.3386 20.9056L12.3388 20.9078C12.35 21.0103 12.3833 21.3153 13.0499 21.4659C13.3596 21.5383 13.7287 21.5479 14.1157 21.5289L15.0943 21.4141C16.2991 21.1833 17.4726 20.6776 17.7602 20.2043C17.9014 19.9753 18.2005 19.9007 18.4333 20.0421C18.6631 20.1834 18.7365 20.4829 18.5962 20.714C18.0946 21.5346 16.5744 22.1605 15.0951 22.4046L14.1169 22.5038C14.0791 22.5054 14.0408 22.5081 14.0026 22.5108C13.9437 22.515 13.8849 22.5192 13.8283 22.5192C13.4637 22.5192 13.1261 22.4867 12.8326 22.42C11.6513 22.1488 11.407 21.416 11.3671 21.0021Z"
            fill="#489FCA" />
    </g>
    <defs>
        <clipPath id="clip0">
            <rect width="16.0002" height="16" fill="white" transform="translate(8 8)" />
        </clipPath>
    </defs>
</svg>
