<svg width="48" height="18" viewBox="0 0 48 18" fill="none" xmlns="http://www.w3.org/2000/svg">
    <path
        d="M35.9233 0.00293328C36.3525 -0.0300792 36.7546 0.215231 36.9216 0.611931L40.664 9.49999H48C48.5523 9.49999 49 9.9477 49 10.5C49 11.0523 48.5523 11.5 48 11.5H40C39.5977 11.5 39.2345 11.2589 39.0784 10.888L36.2425 4.15295L32.9701 17.2425C32.8725 17.6329 32.5504 17.9268 32.1527 17.9883C31.755 18.0497 31.3592 17.8668 31.1483 17.5241L27.4412 11.5L0 10.5L28 9.49999C28.3473 9.49999 28.6697 9.68014 28.8517 9.97589L31.6062 14.452L35.0299 0.757452C35.1343 0.339873 35.4941 0.0359457 35.9233 0.00293328Z"
        fill="white" fill-opacity="0.3" />
</svg>
