<svg width="24" height="24" viewBox="0 0 24 24" fill="none" xmlns="http://www.w3.org/2000/svg">
<path fill-rule="evenodd" clip-rule="evenodd" d="M19.0601 4.65072L19.3555 4.94936C19.7712 5.36962 20 5.9286 20 6.52299C20 7.11739 19.7711 7.67615 19.3554 8.09646L19.0667 8.38838L18.9288 8.52781L18.5022 8.95922L13.6312 13.8845L12.8328 14.692L10.5089 17.0418L9.71049 17.8492L8.63303 18.9387L4 20L5.22534 15.4929L6.16302 14.5447L7.83405 12.855L8.63243 12.0477L10.3035 10.3579L11.1018 9.55061L12.8328 7.80044L13.6311 6.99315L15.0945 5.51348L15.6591 4.94264L15.9478 4.65072C16.8058 3.78309 18.2021 3.78309 19.0601 4.65072ZM5.77128 16.4708L7.66573 18.3864L4.97312 19.1935L5.77128 16.4708ZM8.42232 18.0097L6.14377 15.7058L15.6591 6.08437L17.9376 8.38833L8.42232 18.0097ZM18.791 7.52551L18.5023 7.81744L16.2237 5.51348L16.5124 5.22156C17.0592 4.6687 17.9488 4.6687 18.4956 5.22156L18.791 5.5202C19.0558 5.78802 19.2017 6.14411 19.2017 6.52283C19.2017 6.9016 19.0558 7.25769 18.791 7.52551ZM16.0769 7.31538L15.5123 7.88622L16.0087 8.38824L14.3693 10.0459L14.9338 10.6168L17.1379 8.38824L16.0769 7.31538ZM13.8698 10.5515L13.338 11.0893L13.9025 11.6601L14.4343 11.1223L13.8698 10.5515Z" fill="black"/>
</svg>
