<svg width="16" height="16" viewBox="0 0 16 16" fill="none" xmlns="http://www.w3.org/2000/svg">
<path d="M4.32793 1.5C4.06643 1.5 3.80843 1.594 3.59343 1.7655L3.56243 1.781L3.54693 1.797L1.98443 3.4065L1.99993 3.4215C1.77066 3.62968 1.60822 3.90112 1.53312 4.20155C1.45801 4.50198 1.4736 4.81793 1.57793 5.1095C1.57993 5.1135 1.57593 5.121 1.57793 5.125C2.00193 6.338 3.08593 8.68 5.20293 10.797C7.32793 12.922 9.70093 13.963 10.8749 14.422H10.8904C11.1846 14.5193 11.499 14.5387 11.803 14.4784C12.1069 14.4181 12.3901 14.2802 12.6249 14.078L14.2029 12.5C14.6169 12.086 14.6169 11.367 14.2029 10.953L12.1719 8.922L12.1559 8.8905C11.7419 8.4765 11.0079 8.4765 10.5934 8.8905L9.59343 9.8905C8.84296 9.52996 8.15266 9.05571 7.54693 8.4845C6.72843 7.703 6.31043 6.8045 6.15643 6.453L7.15643 5.453C7.57643 5.033 7.58393 4.334 7.14043 3.922L7.15593 3.906L7.10943 3.8595L5.10943 1.797L5.09393 1.7815L5.06243 1.7655C4.85491 1.59605 4.59583 1.5024 4.32793 1.5ZM4.32793 2.5C4.3688 2.50237 4.40755 2.51901 4.43743 2.547L6.43743 4.5935L6.48443 4.6405C6.48043 4.6365 6.51343 4.6895 6.45293 4.75L5.20293 6L4.96843 6.219L5.07843 6.531C5.07843 6.531 5.65243 8.0685 6.85943 9.219L6.96893 9.3125C8.13043 10.373 9.49993 10.953 9.49993 10.953L9.81243 11.094L11.2969 9.609C11.3829 9.5235 11.3669 9.5235 11.4529 9.609L13.4999 11.657C13.5859 11.7425 13.5859 11.7115 13.4999 11.797L11.9684 13.3285C11.7384 13.526 11.4939 13.567 11.2034 13.4695C10.0704 13.024 7.86893 12.057 5.90593 10.0945C3.92743 8.1155 2.89443 5.8715 2.51593 4.782C2.43943 4.5785 2.49393 4.278 2.67193 4.1255L2.70293 4.094L4.21893 2.5475C4.24847 2.51954 4.28684 2.50274 4.32743 2.5H4.32793Z" fill="#489FCA"/>
</svg>
