<svg width="20" height="20" viewBox="0 0 20 20" fill="none" xmlns="http://www.w3.org/2000/svg">
    <path
        d="M11.875 1.875C8.43 1.875 5.625 4.68 5.625 8.125C5.625 9.62187 6.15 10.9937 7.03125 12.0706L2.05062 17.05L2.95 17.95L7.93 12.9694C9.04221 13.8812 10.4368 14.3781 11.875 14.375C15.32 14.375 18.125 11.57 18.125 8.125C18.125 4.68 15.32 1.875 11.875 1.875ZM11.875 3.125C14.6437 3.125 16.875 5.35625 16.875 8.125C16.875 10.8938 14.6437 13.125 11.875 13.125C9.10625 13.125 6.875 10.8938 6.875 8.125C6.875 5.35625 9.10625 3.125 11.875 3.125Z"
        fill="#777777" />
</svg>
