<svg width="16" height="16" viewBox="0 0 16 16" fill="none" xmlns="http://www.w3.org/2000/svg">
    <path
        d="M13.0351 1.99799C12.8746 2.00967 12.717 2.04733 12.5686 2.10949H12.5666C12.4241 2.16599 11.7466 2.45099 10.7166 2.88299L7.02556 4.43749C4.37706 5.55249 1.77356 6.65049 1.77356 6.65049L1.80456 6.63849C1.80456 6.63849 1.62506 6.69749 1.43756 6.82599C1.32172 6.8997 1.22205 6.99615 1.14456 7.10949C1.05256 7.24449 0.978559 7.45099 1.00606 7.66449C1.05106 8.02549 1.28506 8.24199 1.45306 8.36149C1.62306 8.48249 1.78506 8.53899 1.78506 8.53899H1.78906L4.23056 9.36149C4.34006 9.71299 4.97456 11.799 5.12706 12.2795C5.21706 12.5665 5.30456 12.746 5.41406 12.883C5.46706 12.953 5.52906 13.0115 5.60356 13.0585C5.64229 13.081 5.68359 13.0988 5.72656 13.1115L5.70156 13.1055C5.70906 13.1075 5.71506 13.1135 5.72056 13.1155C5.74056 13.121 5.75406 13.123 5.77956 13.127C6.16606 13.244 6.47656 13.004 6.47656 13.004L6.49406 12.99L7.93556 11.6775L10.3516 13.531L10.4066 13.5545C10.9101 13.7755 11.4201 13.6525 11.6896 13.4355C11.9611 13.217 12.0666 12.9375 12.0666 12.9375L12.0841 12.8925L13.9511 3.32799C14.0041 3.09199 14.0176 2.87099 13.9591 2.65649C13.8987 2.4394 13.7594 2.25269 13.5686 2.13299C13.4083 2.03555 13.2224 1.98852 13.0351 1.99799ZM12.9846 3.02299C12.9826 3.05449 12.9886 3.05099 12.9746 3.11149V3.11699L11.1251 12.582C11.1171 12.5955 11.1036 12.625 11.0666 12.6545C11.0276 12.6855 10.9966 12.705 10.8341 12.6405L7.87906 10.375L6.09406 12.002L6.46906 9.60699L11.2971 5.10699C11.4961 4.92199 11.4296 4.88299 11.4296 4.88299C11.4436 4.65599 11.1291 4.81649 11.1291 4.81649L5.04106 8.58799L5.03906 8.57799L2.12106 7.59549V7.59349L2.11356 7.59199C2.11867 7.59029 2.12368 7.58829 2.12856 7.58599L2.14456 7.57799L2.16006 7.57249C2.16006 7.57249 4.76556 6.47449 7.41406 5.35949C8.74006 4.80099 10.0761 4.23849 11.1036 3.80449C12.1311 3.37299 12.8906 3.05649 12.9336 3.03949C12.9746 3.02349 12.9551 3.02349 12.9846 3.02349V3.02299Z"
        fill="#489FCA" />
</svg>
