<svg width="254" height="24" viewBox="0 0 254 24" fill="none" xmlns="http://www.w3.org/2000/svg">
    <g clip-path="url(#clip0)">
        <path
            d="M176.455 23.6268V0.468821H172.386V23.6268H176.455ZM229.205 12.0495C229.205 15.5864 230.328 18.4659 232.613 20.6847C234.895 22.9 237.774 23.992 241.248 23.992C244.723 23.992 247.599 22.8652 249.884 20.6151C252.165 18.3685 253.323 15.5203 253.323 12.0495C253.323 8.50576 252.165 5.62971 249.884 3.41094C247.599 1.19565 244.723 0.103645 241.248 0.103645C237.739 0.103645 234.863 1.26173 232.578 3.54658C230.328 5.82795 229.205 8.64139 229.205 12.0495ZM233.507 12.0495C233.507 9.66731 234.234 7.71286 235.691 6.1931C237.18 4.66987 239.03 3.90827 241.248 3.90827C243.464 3.90827 245.283 4.66987 246.774 6.1931C248.263 7.71286 249.025 9.66731 249.025 12.0495C249.025 14.397 248.329 16.3167 246.907 17.8712C245.516 19.4258 243.631 20.1874 241.248 20.1874C239.064 20.1874 237.211 19.4258 235.722 17.8712C234.234 16.3167 233.507 14.3622 233.507 12.0495ZM216.598 23.6268V14.63H224.771V10.8254H216.598V4.2734H225.762V0.468821H212.53V23.6268H216.598ZM205.779 0.468821H201.975V16.581L189.236 0.468821H185.995V23.6268H189.799V7.5807L202.538 23.6268H205.779V0.468821Z"
            fill="white" fill-opacity="0.4" />
        <path
            d="M15.2917 0.468824V13.2042C15.2917 17.8712 13.5702 20.1874 10.1308 20.1874C6.26007 20.1874 4.3404 17.44 4.3404 12.9399V0.468824H0.271484V13.8023C0.271484 17.0783 1.16526 19.624 2.94932 21.3768C4.77163 23.1295 7.15384 23.992 10.1308 23.992C12.7773 23.992 14.9613 23.1643 16.7141 21.5089C18.4668 19.857 19.3293 17.3739 19.3293 14.0319V0.468824H15.2917ZM54.3323 4.20735C57.1771 4.20735 58.5995 5.39672 58.5995 7.81372C58.5995 10.2933 56.8467 11.5523 54.2975 11.5523C53.4385 11.5523 52.4787 11.4862 51.4215 11.3853V4.27341C52.8752 4.23863 53.835 4.20735 54.3323 4.20735ZM51.4215 15.256C52.0823 15.3221 53.0734 15.3568 54.4297 15.3568C57.0797 15.3568 59.1628 14.63 60.6513 13.1729C62.1398 11.7157 62.9014 9.93163 62.9014 7.84501C62.9014 4.00911 60.7174 0.402725 53.9359 0.402725C53.3725 0.402725 52.2144 0.402756 50.493 0.434055C48.8063 0.468832 47.749 0.468824 47.3526 0.468824V23.6268H51.4215V15.256ZM86.6228 23.6268V0.468824H82.5852V9.93163H71.999V0.468824H67.9301V23.6268H71.999V13.7363H82.5852V23.6268H86.6228ZM105.249 13.8997H98.4678L101.876 5.66101L105.249 13.8997ZM94.4963 23.6268L96.9133 17.7043H106.807L109.221 23.6268H113.554L103.761 0.402725H100.189L90.3961 23.6268H94.4963ZM124.21 4.20735C127.086 4.20735 128.508 5.33063 128.508 7.5807C128.508 9.83078 126.592 11.1558 124.078 11.1558H121.431V4.27341C122.885 4.23863 123.81 4.20735 124.21 4.20735ZM121.431 14.9604H124.276L130.661 23.6268H135.589L128.345 14.164C129.503 13.7676 130.56 13.0059 131.454 11.9139C132.348 10.7906 132.81 9.33348 132.81 7.54942C132.81 2.78497 129.997 0.402725 124.408 0.402725C124.241 0.402725 123.118 0.402756 121.097 0.434055C119.08 0.468832 117.856 0.468824 117.359 0.468824V23.6268H121.431V14.9604ZM186.002 10.0116H162.85V0.468824H159.015L151.471 11.2879L143.563 0.468824H139.459V23.6268H143.532V6.98603L150.908 17.1757H151.503L158.816 6.88516V23.6268H162.85V14.084H186.002V10.0116ZM36.6969 4.27341L23.8955 20.8481V23.6268H42.4873V19.8222H29.3207L42.1569 3.27879V0.468824H24.5563V4.27341H36.6969Z"
            fill="white" />
    </g>
    <defs>
        <clipPath id="clip0">
            <rect width="253.565" height="24" fill="white" />
        </clipPath>
    </defs>
</svg>
